<mxfile host="app.diagrams.net" agent="Mozilla/5.0 (Windows NT 10.0; Win64; x64) AppleWebKit/537.36 (KHTML, like Gecko) Chrome/128.0.0.0 YaBrowser/24.10.0.0 Safari/537.36" version="24.8.4">
  <diagram id="6a731a19-8d31-9384-78a2-239565b7b9f0" name="Page-1">
    <mxGraphModel dx="1909" dy="1116" grid="1" gridSize="10" guides="1" tooltips="1" connect="1" arrows="1" fold="1" page="1" pageScale="1" pageWidth="1169" pageHeight="827" background="none" math="0" shadow="0">
      <root>
        <mxCell id="0" />
        <mxCell id="1" parent="0" />
        <mxCell id="u4ChKOQlIIPJACsc-Hy--58" value="Меню" style="rounded=0;whiteSpace=wrap;html=1;" parent="1" vertex="1">
          <mxGeometry x="315" y="50" width="120" height="60" as="geometry" />
        </mxCell>
        <mxCell id="u4ChKOQlIIPJACsc-Hy--59" value="Начать игру" style="rhombus;whiteSpace=wrap;html=1;" parent="1" vertex="1">
          <mxGeometry x="220" y="120" width="80" height="80" as="geometry" />
        </mxCell>
        <mxCell id="u4ChKOQlIIPJACsc-Hy--60" value="Авторы" style="rhombus;whiteSpace=wrap;html=1;" parent="1" vertex="1">
          <mxGeometry x="470" y="120" width="80" height="80" as="geometry" />
        </mxCell>
        <mxCell id="u4ChKOQlIIPJACsc-Hy--61" value="Выход" style="rhombus;whiteSpace=wrap;html=1;" parent="1" vertex="1">
          <mxGeometry x="90" y="120" width="80" height="80" as="geometry" />
        </mxCell>
        <mxCell id="u4ChKOQlIIPJACsc-Hy--62" value="Начальная кат-сцена" style="rounded=0;whiteSpace=wrap;html=1;" parent="1" vertex="1">
          <mxGeometry x="315" y="200" width="120" height="60" as="geometry" />
        </mxCell>
        <mxCell id="u4ChKOQlIIPJACsc-Hy--63" value="Дом Тео" style="rounded=0;whiteSpace=wrap;html=1;" parent="1" vertex="1">
          <mxGeometry x="315" y="290" width="120" height="60" as="geometry" />
        </mxCell>
        <mxCell id="u4ChKOQlIIPJACsc-Hy--64" value="Улица" style="rounded=0;whiteSpace=wrap;html=1;" parent="1" vertex="1">
          <mxGeometry x="315" y="380" width="120" height="60" as="geometry" />
        </mxCell>
        <mxCell id="u4ChKOQlIIPJACsc-Hy--65" value="Ресепшн офиса Уайт" style="rounded=0;whiteSpace=wrap;html=1;" parent="1" vertex="1">
          <mxGeometry x="314.5" y="530" width="120" height="60" as="geometry" />
        </mxCell>
        <mxCell id="u4ChKOQlIIPJACsc-Hy--71" value="Вернуться в дом" style="rhombus;whiteSpace=wrap;html=1;" parent="1" vertex="1">
          <mxGeometry x="170" y="450" width="130" height="80" as="geometry" />
        </mxCell>
        <mxCell id="u4ChKOQlIIPJACsc-Hy--72" value="Пойти к офису" style="rhombus;whiteSpace=wrap;html=1;" parent="1" vertex="1">
          <mxGeometry x="445" y="450" width="130" height="80" as="geometry" />
        </mxCell>
        <mxCell id="u4ChKOQlIIPJACsc-Hy--73" value="" style="endArrow=classic;startArrow=classic;html=1;rounded=0;exitX=1;exitY=0.5;exitDx=0;exitDy=0;entryX=0;entryY=0.5;entryDx=0;entryDy=0;" parent="1" source="u4ChKOQlIIPJACsc-Hy--61" target="u4ChKOQlIIPJACsc-Hy--59" edge="1">
          <mxGeometry width="50" height="50" relative="1" as="geometry">
            <mxPoint x="300" y="190" as="sourcePoint" />
            <mxPoint x="350" y="140" as="targetPoint" />
          </mxGeometry>
        </mxCell>
        <mxCell id="u4ChKOQlIIPJACsc-Hy--74" value="" style="endArrow=classic;startArrow=classic;html=1;rounded=0;exitX=1;exitY=0.5;exitDx=0;exitDy=0;entryX=0;entryY=0.5;entryDx=0;entryDy=0;" parent="1" source="u4ChKOQlIIPJACsc-Hy--59" target="u4ChKOQlIIPJACsc-Hy--60" edge="1">
          <mxGeometry width="50" height="50" relative="1" as="geometry">
            <mxPoint x="450" y="180" as="sourcePoint" />
            <mxPoint x="500" y="130" as="targetPoint" />
          </mxGeometry>
        </mxCell>
        <mxCell id="u4ChKOQlIIPJACsc-Hy--75" value="" style="endArrow=classic;html=1;rounded=0;entryX=0;entryY=0.5;entryDx=0;entryDy=0;exitX=0.5;exitY=0;exitDx=0;exitDy=0;" parent="1" source="u4ChKOQlIIPJACsc-Hy--59" target="u4ChKOQlIIPJACsc-Hy--58" edge="1">
          <mxGeometry width="50" height="50" relative="1" as="geometry">
            <mxPoint x="375" y="120" as="sourcePoint" />
            <mxPoint x="430" y="90" as="targetPoint" />
            <Array as="points">
              <mxPoint x="260" y="80" />
            </Array>
          </mxGeometry>
        </mxCell>
        <mxCell id="u4ChKOQlIIPJACsc-Hy--76" value="" style="endArrow=classic;html=1;rounded=0;entryX=1;entryY=0.5;entryDx=0;entryDy=0;exitX=0.5;exitY=0;exitDx=0;exitDy=0;" parent="1" source="u4ChKOQlIIPJACsc-Hy--60" target="u4ChKOQlIIPJACsc-Hy--58" edge="1">
          <mxGeometry width="50" height="50" relative="1" as="geometry">
            <mxPoint x="500" y="140" as="sourcePoint" />
            <mxPoint x="550" y="90" as="targetPoint" />
            <Array as="points">
              <mxPoint x="510" y="80" />
            </Array>
          </mxGeometry>
        </mxCell>
        <mxCell id="u4ChKOQlIIPJACsc-Hy--77" value="" style="endArrow=classic;html=1;rounded=0;exitX=0.5;exitY=1;exitDx=0;exitDy=0;entryX=0.5;entryY=0;entryDx=0;entryDy=0;" parent="1" source="u4ChKOQlIIPJACsc-Hy--58" target="u4ChKOQlIIPJACsc-Hy--62" edge="1">
          <mxGeometry width="50" height="50" relative="1" as="geometry">
            <mxPoint x="350" y="170" as="sourcePoint" />
            <mxPoint x="400" y="120" as="targetPoint" />
          </mxGeometry>
        </mxCell>
        <mxCell id="u4ChKOQlIIPJACsc-Hy--78" value="" style="endArrow=classic;html=1;rounded=0;exitX=0.5;exitY=1;exitDx=0;exitDy=0;entryX=0.5;entryY=0;entryDx=0;entryDy=0;" parent="1" source="u4ChKOQlIIPJACsc-Hy--62" target="u4ChKOQlIIPJACsc-Hy--63" edge="1">
          <mxGeometry width="50" height="50" relative="1" as="geometry">
            <mxPoint x="520" y="270" as="sourcePoint" />
            <mxPoint x="570" y="220" as="targetPoint" />
          </mxGeometry>
        </mxCell>
        <mxCell id="u4ChKOQlIIPJACsc-Hy--79" value="" style="endArrow=classic;startArrow=classic;html=1;rounded=0;exitX=1;exitY=0.5;exitDx=0;exitDy=0;entryX=0;entryY=0.5;entryDx=0;entryDy=0;" parent="1" source="u4ChKOQlIIPJACsc-Hy--71" target="u4ChKOQlIIPJACsc-Hy--72" edge="1">
          <mxGeometry width="50" height="50" relative="1" as="geometry">
            <mxPoint x="320" y="520" as="sourcePoint" />
            <mxPoint x="370" y="470" as="targetPoint" />
          </mxGeometry>
        </mxCell>
        <mxCell id="u4ChKOQlIIPJACsc-Hy--80" value="" style="endArrow=classic;html=1;rounded=0;entryX=0;entryY=0.5;entryDx=0;entryDy=0;exitX=0.5;exitY=0;exitDx=0;exitDy=0;" parent="1" source="u4ChKOQlIIPJACsc-Hy--71" target="u4ChKOQlIIPJACsc-Hy--64" edge="1">
          <mxGeometry width="50" height="50" relative="1" as="geometry">
            <mxPoint x="240" y="450" as="sourcePoint" />
            <mxPoint x="260" y="410" as="targetPoint" />
            <Array as="points">
              <mxPoint x="235" y="410" />
            </Array>
          </mxGeometry>
        </mxCell>
        <mxCell id="u4ChKOQlIIPJACsc-Hy--81" value="" style="endArrow=classic;html=1;rounded=0;entryX=1;entryY=0.5;entryDx=0;entryDy=0;exitX=0.5;exitY=0;exitDx=0;exitDy=0;" parent="1" source="u4ChKOQlIIPJACsc-Hy--72" target="u4ChKOQlIIPJACsc-Hy--64" edge="1">
          <mxGeometry width="50" height="50" relative="1" as="geometry">
            <mxPoint x="500" y="460" as="sourcePoint" />
            <mxPoint x="550" y="410" as="targetPoint" />
            <Array as="points">
              <mxPoint x="510" y="410" />
            </Array>
          </mxGeometry>
        </mxCell>
        <mxCell id="u4ChKOQlIIPJACsc-Hy--82" value="" style="endArrow=classic;html=1;rounded=0;exitX=0.5;exitY=1;exitDx=0;exitDy=0;entryX=0.5;entryY=0;entryDx=0;entryDy=0;" parent="1" source="u4ChKOQlIIPJACsc-Hy--64" target="u4ChKOQlIIPJACsc-Hy--65" edge="1">
          <mxGeometry width="50" height="50" relative="1" as="geometry">
            <mxPoint x="360" y="520" as="sourcePoint" />
            <mxPoint x="410" y="470" as="targetPoint" />
          </mxGeometry>
        </mxCell>
        <mxCell id="u4ChKOQlIIPJACsc-Hy--83" value="" style="endArrow=classic;html=1;rounded=0;exitX=0.5;exitY=1;exitDx=0;exitDy=0;entryX=0.5;entryY=0;entryDx=0;entryDy=0;" parent="1" source="u4ChKOQlIIPJACsc-Hy--63" target="u4ChKOQlIIPJACsc-Hy--64" edge="1">
          <mxGeometry width="50" height="50" relative="1" as="geometry">
            <mxPoint x="180" y="400" as="sourcePoint" />
            <mxPoint x="230" y="350" as="targetPoint" />
          </mxGeometry>
        </mxCell>
        <mxCell id="u4ChKOQlIIPJACsc-Hy--87" value="Меню рестарта" style="rounded=0;whiteSpace=wrap;html=1;" parent="1" vertex="1">
          <mxGeometry x="730" y="220" width="120" height="60" as="geometry" />
        </mxCell>
        <mxCell id="u4ChKOQlIIPJACsc-Hy--88" value="Меню паузы" style="rounded=0;whiteSpace=wrap;html=1;" parent="1" vertex="1">
          <mxGeometry x="730" y="50" width="120" height="60" as="geometry" />
        </mxCell>
        <mxCell id="u4ChKOQlIIPJACsc-Hy--89" value="Продолжить игру" style="rhombus;whiteSpace=wrap;html=1;" parent="1" vertex="1">
          <mxGeometry x="620" y="120" width="120" height="80" as="geometry" />
        </mxCell>
        <mxCell id="u4ChKOQlIIPJACsc-Hy--90" value="Выйти" style="rhombus;whiteSpace=wrap;html=1;" parent="1" vertex="1">
          <mxGeometry x="960" y="120" width="80" height="80" as="geometry" />
        </mxCell>
        <mxCell id="u4ChKOQlIIPJACsc-Hy--91" value="Рестарт" style="rhombus;whiteSpace=wrap;html=1;" parent="1" vertex="1">
          <mxGeometry x="840" y="120" width="80" height="80" as="geometry" />
        </mxCell>
        <mxCell id="u4ChKOQlIIPJACsc-Hy--96" value="" style="endArrow=classic;startArrow=classic;html=1;rounded=0;entryX=1;entryY=0.5;entryDx=0;entryDy=0;" parent="1" source="u4ChKOQlIIPJACsc-Hy--91" target="u4ChKOQlIIPJACsc-Hy--89" edge="1">
          <mxGeometry width="50" height="50" relative="1" as="geometry">
            <mxPoint x="704.2893218813452" y="210" as="sourcePoint" />
            <mxPoint x="725" y="160" as="targetPoint" />
          </mxGeometry>
        </mxCell>
        <mxCell id="u4ChKOQlIIPJACsc-Hy--98" value="" style="endArrow=classic;startArrow=classic;html=1;rounded=0;entryX=0;entryY=0.5;entryDx=0;entryDy=0;exitX=1;exitY=0.5;exitDx=0;exitDy=0;" parent="1" source="u4ChKOQlIIPJACsc-Hy--91" target="u4ChKOQlIIPJACsc-Hy--90" edge="1">
          <mxGeometry width="50" height="50" relative="1" as="geometry">
            <mxPoint x="825" y="250" as="sourcePoint" />
            <mxPoint x="875" y="200" as="targetPoint" />
          </mxGeometry>
        </mxCell>
        <mxCell id="u4ChKOQlIIPJACsc-Hy--99" value="" style="endArrow=classic;html=1;rounded=0;entryX=0;entryY=0.5;entryDx=0;entryDy=0;exitX=0.5;exitY=0;exitDx=0;exitDy=0;" parent="1" source="u4ChKOQlIIPJACsc-Hy--89" target="u4ChKOQlIIPJACsc-Hy--88" edge="1">
          <mxGeometry width="50" height="50" relative="1" as="geometry">
            <mxPoint x="640" y="130" as="sourcePoint" />
            <mxPoint x="690" y="80" as="targetPoint" />
            <Array as="points">
              <mxPoint x="680" y="80" />
            </Array>
          </mxGeometry>
        </mxCell>
        <mxCell id="u4ChKOQlIIPJACsc-Hy--100" value="" style="endArrow=classic;html=1;rounded=0;entryX=1;entryY=0.5;entryDx=0;entryDy=0;exitX=0.5;exitY=0;exitDx=0;exitDy=0;" parent="1" source="u4ChKOQlIIPJACsc-Hy--91" target="u4ChKOQlIIPJACsc-Hy--88" edge="1">
          <mxGeometry width="50" height="50" relative="1" as="geometry">
            <mxPoint x="890" y="130" as="sourcePoint" />
            <mxPoint x="940" y="80" as="targetPoint" />
            <Array as="points">
              <mxPoint x="880" y="80" />
            </Array>
          </mxGeometry>
        </mxCell>
        <mxCell id="u4ChKOQlIIPJACsc-Hy--101" value="" style="endArrow=classic;html=1;rounded=0;exitX=0.5;exitY=1;exitDx=0;exitDy=0;entryX=0.5;entryY=0;entryDx=0;entryDy=0;" parent="1" source="u4ChKOQlIIPJACsc-Hy--88" target="u4ChKOQlIIPJACsc-Hy--87" edge="1">
          <mxGeometry width="50" height="50" relative="1" as="geometry">
            <mxPoint x="980" y="310" as="sourcePoint" />
            <mxPoint x="1030" y="260" as="targetPoint" />
          </mxGeometry>
        </mxCell>
        <mxCell id="u4ChKOQlIIPJACsc-Hy--102" value="Начать игру заново" style="rhombus;whiteSpace=wrap;html=1;" parent="1" vertex="1">
          <mxGeometry x="620" y="280" width="120" height="80" as="geometry" />
        </mxCell>
        <mxCell id="u4ChKOQlIIPJACsc-Hy--103" value="Начать уровень заново" style="rhombus;whiteSpace=wrap;html=1;" parent="1" vertex="1">
          <mxGeometry x="840" y="280" width="130" height="80" as="geometry" />
        </mxCell>
        <mxCell id="u4ChKOQlIIPJACsc-Hy--106" value="" style="endArrow=classic;html=1;rounded=0;exitX=0.5;exitY=0;exitDx=0;exitDy=0;entryX=0;entryY=0.5;entryDx=0;entryDy=0;" parent="1" source="u4ChKOQlIIPJACsc-Hy--102" target="u4ChKOQlIIPJACsc-Hy--87" edge="1">
          <mxGeometry width="50" height="50" relative="1" as="geometry">
            <mxPoint x="630" y="280" as="sourcePoint" />
            <mxPoint x="680" y="230" as="targetPoint" />
            <Array as="points">
              <mxPoint x="680" y="250" />
            </Array>
          </mxGeometry>
        </mxCell>
        <mxCell id="u4ChKOQlIIPJACsc-Hy--107" value="" style="endArrow=classic;html=1;rounded=0;entryX=1;entryY=0.5;entryDx=0;entryDy=0;exitX=0.5;exitY=0;exitDx=0;exitDy=0;" parent="1" source="u4ChKOQlIIPJACsc-Hy--103" target="u4ChKOQlIIPJACsc-Hy--87" edge="1">
          <mxGeometry width="50" height="50" relative="1" as="geometry">
            <mxPoint x="920" y="290" as="sourcePoint" />
            <mxPoint x="970" y="240" as="targetPoint" />
            <Array as="points">
              <mxPoint x="905" y="250" />
            </Array>
          </mxGeometry>
        </mxCell>
        <mxCell id="u4ChKOQlIIPJACsc-Hy--108" value="" style="endArrow=classic;startArrow=classic;html=1;rounded=0;exitX=1;exitY=0.5;exitDx=0;exitDy=0;entryX=0;entryY=0.5;entryDx=0;entryDy=0;" parent="1" source="u4ChKOQlIIPJACsc-Hy--102" target="u4ChKOQlIIPJACsc-Hy--103" edge="1">
          <mxGeometry width="50" height="50" relative="1" as="geometry">
            <mxPoint x="790" y="340" as="sourcePoint" />
            <mxPoint x="840" y="290" as="targetPoint" />
          </mxGeometry>
        </mxCell>
        <mxCell id="u4ChKOQlIIPJACsc-Hy--109" value="Вернуться к игре" style="rounded=0;whiteSpace=wrap;html=1;" parent="1" vertex="1">
          <mxGeometry x="730" y="370" width="120" height="60" as="geometry" />
        </mxCell>
        <mxCell id="u4ChKOQlIIPJACsc-Hy--110" value="" style="endArrow=classic;html=1;rounded=0;exitX=0.5;exitY=1;exitDx=0;exitDy=0;entryX=0.5;entryY=0;entryDx=0;entryDy=0;" parent="1" source="u4ChKOQlIIPJACsc-Hy--87" target="u4ChKOQlIIPJACsc-Hy--109" edge="1">
          <mxGeometry width="50" height="50" relative="1" as="geometry">
            <mxPoint x="790" y="349.28932188134524" as="sourcePoint" />
            <mxPoint x="790" y="299.28932188134524" as="targetPoint" />
          </mxGeometry>
        </mxCell>
        <mxCell id="u4ChKOQlIIPJACsc-Hy--111" value="Первый этаж" style="rounded=0;whiteSpace=wrap;html=1;" parent="1" vertex="1">
          <mxGeometry x="315" y="620" width="120" height="60" as="geometry" />
        </mxCell>
        <mxCell id="u4ChKOQlIIPJACsc-Hy--112" value="Второй этаж" style="rounded=0;whiteSpace=wrap;html=1;" parent="1" vertex="1">
          <mxGeometry x="315" y="710" width="120" height="60" as="geometry" />
        </mxCell>
        <mxCell id="u4ChKOQlIIPJACsc-Hy--113" value="" style="endArrow=classic;html=1;rounded=0;exitX=0.5;exitY=1;exitDx=0;exitDy=0;entryX=0.5;entryY=0;entryDx=0;entryDy=0;" parent="1" source="u4ChKOQlIIPJACsc-Hy--65" target="u4ChKOQlIIPJACsc-Hy--111" edge="1">
          <mxGeometry width="50" height="50" relative="1" as="geometry">
            <mxPoint x="510" y="620" as="sourcePoint" />
            <mxPoint x="560" y="570" as="targetPoint" />
          </mxGeometry>
        </mxCell>
        <mxCell id="u4ChKOQlIIPJACsc-Hy--114" value="" style="endArrow=classic;html=1;rounded=0;entryX=0.5;entryY=0;entryDx=0;entryDy=0;exitX=0.5;exitY=1;exitDx=0;exitDy=0;" parent="1" source="u4ChKOQlIIPJACsc-Hy--111" target="u4ChKOQlIIPJACsc-Hy--112" edge="1">
          <mxGeometry width="50" height="50" relative="1" as="geometry">
            <mxPoint x="470" y="490" as="sourcePoint" />
            <mxPoint x="520" y="440" as="targetPoint" />
            <Array as="points" />
          </mxGeometry>
        </mxCell>
        <mxCell id="u4ChKOQlIIPJACsc-Hy--116" value="Третий этаж" style="rounded=0;whiteSpace=wrap;html=1;" parent="1" vertex="1">
          <mxGeometry x="315" y="800" width="120" height="60" as="geometry" />
        </mxCell>
        <mxCell id="u4ChKOQlIIPJACsc-Hy--117" value="" style="endArrow=classic;html=1;rounded=0;exitX=0.5;exitY=1;exitDx=0;exitDy=0;entryX=0.5;entryY=0;entryDx=0;entryDy=0;" parent="1" source="u4ChKOQlIIPJACsc-Hy--112" target="u4ChKOQlIIPJACsc-Hy--116" edge="1">
          <mxGeometry width="50" height="50" relative="1" as="geometry">
            <mxPoint x="500" y="810" as="sourcePoint" />
            <mxPoint x="550" y="760" as="targetPoint" />
          </mxGeometry>
        </mxCell>
        <mxCell id="u4ChKOQlIIPJACsc-Hy--118" value="" style="endArrow=classic;html=1;rounded=0;exitX=0;exitY=0.25;exitDx=0;exitDy=0;entryX=0;entryY=0.5;entryDx=0;entryDy=0;" parent="1" source="u4ChKOQlIIPJACsc-Hy--64" target="u4ChKOQlIIPJACsc-Hy--63" edge="1">
          <mxGeometry width="50" height="50" relative="1" as="geometry">
            <mxPoint x="200" y="370" as="sourcePoint" />
            <mxPoint x="250" y="320" as="targetPoint" />
            <Array as="points">
              <mxPoint x="220" y="395" />
              <mxPoint x="220" y="320" />
            </Array>
          </mxGeometry>
        </mxCell>
        <mxCell id="u4ChKOQlIIPJACsc-Hy--119" value="Конец демо" style="rounded=0;whiteSpace=wrap;html=1;" parent="1" vertex="1">
          <mxGeometry x="315" y="890" width="120" height="60" as="geometry" />
        </mxCell>
        <mxCell id="u4ChKOQlIIPJACsc-Hy--120" value="" style="endArrow=classic;html=1;rounded=0;exitX=0.5;exitY=1;exitDx=0;exitDy=0;entryX=0.5;entryY=0;entryDx=0;entryDy=0;" parent="1" source="u4ChKOQlIIPJACsc-Hy--116" target="u4ChKOQlIIPJACsc-Hy--119" edge="1">
          <mxGeometry width="50" height="50" relative="1" as="geometry">
            <mxPoint x="400" y="880" as="sourcePoint" />
            <mxPoint x="450" y="830" as="targetPoint" />
          </mxGeometry>
        </mxCell>
      </root>
    </mxGraphModel>
  </diagram>
</mxfile>
